<svg width="13" height="16" viewBox="0 0 13 16" fill="none" xmlns="http://www.w3.org/2000/svg">
<path d="M6.50391 3.39502C6.14823 3.43019 5.7803 3.59024 5.49609 3.90771C5.17221 4.26957 5.04004 4.7404 5.04004 5.22607C5.04004 5.53258 5.07273 5.78521 5.11133 5.99756C4.94677 5.85793 4.74338 5.7037 4.47754 5.55029L4.24902 5.43311C4.00992 5.32551 3.73979 5.25149 3.44824 5.25146L3.24512 5.26416C2.80807 5.3188 2.39683 5.54915 2.13477 5.93799L2.07715 6.03076L2.00293 6.17529C1.84946 6.52087 1.8292 6.91031 1.93848 7.26709H1.93945C2.09937 7.78825 2.4852 8.13184 2.86133 8.34912V8.3501C3.12669 8.50322 3.36232 8.60062 3.56543 8.67334C3.36235 8.746 3.12694 8.84414 2.86133 8.99756L2.7207 9.08545C2.43916 9.27279 2.16837 9.53457 2.00879 9.89307L1.93945 10.0796V10.0806L1.90039 10.2349C1.83843 10.5473 1.8716 10.8754 2.00293 11.1714L2.07715 11.3169C2.37045 11.8245 2.90402 12.0962 3.44824 12.0962C3.73971 12.0962 4.00996 12.0221 4.24902 11.9146L4.47754 11.7974C4.74377 11.6437 4.94657 11.488 5.11133 11.3481C5.07263 11.5607 5.04008 11.8136 5.04004 12.1206L5.0459 12.3022C5.07555 12.7229 5.21244 13.1232 5.49609 13.4399C5.82119 13.8029 6.25614 13.9595 6.65625 13.9595C7.0563 13.9594 7.4905 13.8027 7.81543 13.4399C8.13945 13.0782 8.27239 12.6073 8.27246 12.1216C8.27246 11.8144 8.23987 11.5607 8.20117 11.3481C8.33104 11.4583 8.48381 11.5791 8.67383 11.6997L8.83398 11.7974C9.12296 11.964 9.47403 12.0962 9.86328 12.0962C10.3736 12.0962 10.8744 11.8576 11.1768 11.4087L11.2344 11.3169C11.4533 10.9378 11.4978 10.4882 11.373 10.0806L11.3721 10.0796L11.3018 9.89307C11.1155 9.4749 10.7789 9.18769 10.4492 8.99756L10.1299 8.83057C9.99165 8.76539 9.86347 8.71536 9.74609 8.67334C9.94892 8.60073 10.1833 8.50204 10.4482 8.34912L10.4492 8.3501C10.7787 8.15994 11.1165 7.8727 11.3027 7.45459L11.3721 7.26709C11.4972 6.85909 11.4529 6.40947 11.2344 6.03076V6.02979L11.1768 5.93799C10.8745 5.48969 10.3736 5.25146 9.86328 5.25146L9.71973 5.25732C9.38798 5.28479 9.08757 5.40394 8.83398 5.55029L8.5293 5.74268C8.40345 5.82994 8.29638 5.91681 8.20117 5.99756C8.23974 5.78536 8.27246 5.53255 8.27246 5.22607L8.26562 5.04541C8.23597 4.62465 8.09902 4.22446 7.81543 3.90771C7.49055 3.54497 7.05643 3.38733 6.65625 3.38721L6.50391 3.39502ZM6.6543 8.67139H6.65527H6.65723V8.67529H6.6543L6.65332 8.67334L6.6543 8.67139Z" fill="#A481C4" stroke="#E6FFEB" stroke-width="2"/>
<path d="M0.945336 10.7808C1.03958 9.61602 1.26142 9.15793 2.1003 8.6739C1.26156 8.18972 1.03972 7.73178 0.945336 6.56696C0.851096 5.40228 0.310466 5.01078 0.310466 5.01078C0.310466 5.01078 0.91953 5.28323 1.97555 4.78237C3.03143 4.28152 3.53884 4.24473 4.37788 4.72905C4.37788 3.76056 4.6633 3.33925 5.62509 2.67544C6.58659 2.01147 6.65516 1.34766 6.65516 1.34766C6.65516 1.34766 6.72374 2.01147 7.68552 2.67529C8.64716 3.33925 8.93273 3.76041 8.93273 4.72891C9.77148 4.24459 10.279 4.28137 11.3349 4.78223C12.3908 5.28309 13 5.01063 13 5.01063C13 5.01063 12.4594 5.402 12.3653 6.56681C12.271 7.73163 12.0491 8.18958 11.2103 8.67375C12.0491 9.15793 12.271 9.61587 12.3653 10.7807C12.4595 11.9455 13 12.3367 13 12.3367C13 12.3367 12.3908 12.0644 11.3349 12.5653C10.279 13.0661 9.77162 13.1029 8.93273 12.6186C8.93273 13.5871 8.64716 14.0084 7.68552 14.6724C6.72388 15.3363 6.65516 16 6.65516 16C6.65516 16 6.58659 15.3363 5.62466 14.6724C4.66316 14.0084 4.37745 13.5872 4.37745 12.6186C3.5387 13.1028 3.03129 13.0661 1.97527 12.5653C0.919531 12.0646 0.310181 12.3367 0.310181 12.3367C0.310181 12.3367 0.851096 11.9457 0.945336 10.7808ZM1.95773 11.3859C2.26711 11.922 2.77509 12.0345 3.14677 12.0345C3.46699 12.0345 3.76154 11.9471 3.91167 11.8604C4.27294 11.6518 4.63023 11.35 4.8006 11.1093C5.04938 10.758 5.2718 10.6427 5.45685 10.7493C5.64576 10.8585 5.65132 11.1102 5.47311 11.4978C5.35021 11.7654 5.26752 12.2257 5.26752 12.643C5.26752 13.0711 5.66686 14.0978 6.65516 14.0979C7.20534 14.0979 7.54067 13.7876 7.72501 13.5271C7.94343 13.2187 8.04281 12.8528 8.04281 12.643C8.04281 12.2257 7.96011 11.7654 7.83708 11.4978C7.65886 11.1102 7.66442 10.8587 7.85333 10.7493C7.89724 10.7239 7.94443 10.7111 7.99333 10.7111C8.15087 10.7111 8.31968 10.8414 8.50944 11.1093C8.67981 11.35 9.0371 11.6518 9.39837 11.8604C9.5485 11.9469 9.84319 12.0345 10.1633 12.0345C10.5349 12.0345 11.0429 11.922 11.3523 11.3859C11.6275 10.9094 11.5264 10.4639 11.3931 10.174C11.2353 9.83073 10.9679 9.56141 10.7863 9.45662C10.4249 9.24789 9.98491 9.08935 9.6915 9.06212C9.26692 9.02263 9.05164 8.89175 9.05164 8.67361C9.05164 8.45547 9.26692 8.32488 9.6915 8.28524C9.98491 8.25801 10.4249 8.09947 10.7863 7.89074C10.9678 7.78595 11.2351 7.51663 11.3931 7.17332C11.5264 6.88347 11.6276 6.43779 11.3523 5.96145C11.0429 5.42538 10.5349 5.31289 10.1633 5.31289C9.84319 5.31289 9.5485 5.40028 9.39837 5.48697C9.0371 5.69541 8.67981 5.99724 8.50944 6.2379C8.26065 6.5892 8.03796 6.70482 7.85319 6.5979C7.66428 6.48883 7.65872 6.23704 7.83693 5.84953C7.95997 5.58192 8.04266 5.12156 8.04266 4.70424C8.04266 4.2761 7.64332 3.24929 6.65459 3.24929C5.66615 3.24929 5.26695 4.2761 5.26695 4.70424C5.26695 5.12156 5.34964 5.58192 5.47268 5.84953C5.65089 6.23704 5.64533 6.48868 5.45642 6.5979C5.27137 6.70482 5.04924 6.5892 4.80017 6.2379C4.6298 5.99724 4.27251 5.69555 3.91124 5.48697C3.76111 5.40028 3.46642 5.31289 3.14649 5.31289C2.77481 5.31289 2.26683 5.42538 1.9573 5.96145C1.68214 6.43793 1.78322 6.88347 1.91653 7.17332C2.07435 7.51663 2.34168 7.78581 2.52331 7.89074C2.88473 8.09947 3.3247 8.25801 3.61826 8.28524C4.0434 8.32502 4.2584 8.45562 4.2584 8.67375C4.2584 8.89189 4.0434 9.02249 3.61883 9.06212C3.32527 9.08935 2.8853 9.24789 2.52388 9.45676C2.34253 9.56141 2.07521 9.83087 1.9171 10.174C1.7838 10.4639 1.68257 10.9094 1.95773 11.3859Z" fill="#A481C4"/>
<rect width="2.73702" height="5.4741" transform="matrix(-1 0 0 1 8.02344 0.489746)" fill="#BCF0C6"/>
<path d="M6.65544 0C8.47605 0 9.95215 1.47612 9.95215 3.29674C9.95215 4.01365 9.71712 4.67149 9.32646 5.21023C9.31946 5.22314 9.31836 5.23756 9.31039 5.24993L7.11259 8.54667C7.01066 8.69956 6.83896 8.79132 6.65544 8.79132C6.47193 8.79132 6.30022 8.69956 6.1983 8.54667L4.0005 5.24993C3.99239 5.23756 3.99143 5.22314 3.98442 5.21023C3.59376 4.67149 3.35874 4.01365 3.35874 3.29674C3.35874 1.47612 4.83484 0 6.65544 0ZM6.65544 4.39566C7.26231 4.39566 7.75434 3.90362 7.75434 3.29674C7.75434 2.68987 7.26231 2.19783 6.65544 2.19783C6.04857 2.19783 5.55654 2.68987 5.55654 3.29674C5.55654 3.90362 6.04857 4.39566 6.65544 4.39566Z" fill="#013D79"/>
</svg>
