<svg width="16" height="21" viewBox="0 0 16 21" fill="none" xmlns="http://www.w3.org/2000/svg">
<path d="M7.83496 4.53955C7.44615 4.57781 7.04383 4.75322 6.73242 5.10107C6.37765 5.49744 6.22365 6.02298 6.22363 6.58936C6.22363 7.20918 6.32811 7.64443 6.40918 7.98682C6.43791 8.1085 6.45921 8.20537 6.47656 8.29639C6.40643 8.2358 6.33298 8.16891 6.24121 8.08252L6.03418 7.89111C5.81005 7.68851 5.52681 7.45658 5.12402 7.22412L4.8584 7.08838C4.58334 6.96463 4.27925 6.88138 3.95605 6.88135L3.73242 6.896C3.25138 6.956 2.8024 7.20931 2.5166 7.6333L2.45312 7.73389L2.37305 7.89209C2.22933 8.21554 2.19204 8.57436 2.25977 8.9165L2.30273 9.08643C2.47817 9.65817 2.9053 10.0463 3.34668 10.3013V10.3022C3.88344 10.612 4.3128 10.7394 4.64941 10.8403H4.65039C4.76967 10.876 4.8635 10.9059 4.9502 10.936C4.86346 10.9662 4.76925 10.9964 4.64844 11.0327H4.64941C4.31379 11.1334 3.88404 11.2604 3.34668 11.5708L3.18262 11.6724C2.85684 11.8891 2.55595 12.1846 2.37988 12.5796L2.30273 12.7856L2.25977 12.9556C2.19194 13.2979 2.22948 13.6567 2.37305 13.98L2.45312 14.1382C2.77279 14.6914 3.35575 14.9907 3.95605 14.9907C4.27915 14.9907 4.58341 14.9083 4.8584 14.7847L5.12402 14.6479C5.52648 14.4157 5.80996 14.1846 6.03418 13.9819L6.24121 13.7896C6.33282 13.7032 6.40651 13.6362 6.47656 13.5757C6.4593 13.6663 6.43805 13.763 6.40918 13.8853L6.3457 14.1616C6.28224 14.4574 6.22366 14.8181 6.22363 15.2827L6.23047 15.4927C6.26458 15.9786 6.42158 16.425 6.73242 16.772C7.08834 17.1693 7.56294 17.3402 8 17.3403C8.43725 17.3403 8.91258 17.1694 9.26855 16.772C9.62353 16.3756 9.77734 15.8492 9.77734 15.2827C9.7773 14.663 9.6725 14.2277 9.5918 13.8862V13.8853L9.53613 13.6392C9.53163 13.6177 9.52933 13.5963 9.52539 13.5757C9.59524 13.636 9.6676 13.7036 9.75879 13.7896H9.75977C10.0148 14.0297 10.3398 14.338 10.877 14.6479V14.6489C11.2155 14.8441 11.6135 14.9907 12.0449 14.9907C12.6076 14.9906 13.1548 14.7281 13.4844 14.2388L13.5469 14.1382C13.7857 13.7246 13.8349 13.2332 13.6982 12.7866V12.7856L13.6211 12.5796C13.4158 12.1188 13.0399 11.7938 12.6533 11.5708L12.457 11.4624C12.0107 11.2292 11.6451 11.121 11.3506 11.0327L11.1094 10.9575C11.0891 10.9508 11.0702 10.9418 11.0508 10.9351C11.0697 10.9285 11.0886 10.9211 11.1084 10.9146L11.3506 10.8403C11.6448 10.7521 12.0105 10.6431 12.457 10.4097L12.6533 10.3022C13.0399 10.0791 13.4157 9.75351 13.6211 9.29248L13.6982 9.08643C13.8353 8.63948 13.7853 8.14715 13.5469 7.73389L13.4844 7.6333C13.1549 7.1445 12.6077 6.88145 12.0449 6.88135L11.8848 6.88818C11.5152 6.91884 11.1739 7.05274 10.877 7.22412L10.6846 7.34033C10.2593 7.61017 9.98228 7.87191 9.75879 8.08252V8.0835L9.57324 8.25537C9.55755 8.26942 9.54065 8.28123 9.52539 8.29443C9.52917 8.27469 9.53184 8.2544 9.53613 8.23389L9.5918 7.98682C9.67248 7.64527 9.77734 7.20931 9.77734 6.58936L9.76953 6.37939C9.73529 5.89381 9.57902 5.44792 9.26855 5.10107C8.91263 4.70367 8.43738 4.53174 8 4.53174L7.83496 4.53955ZM8 10.6782C8.14158 10.6782 8.25877 10.7945 8.25879 10.936C8.25879 11.0775 8.14151 11.1948 8 11.1948C7.85856 11.1947 7.74219 11.0775 7.74219 10.936C7.74221 10.7945 7.85849 10.6783 8 10.6782Z" fill="#A481C4" stroke="#E6FFEB" stroke-width="2"/>
<path d="M0.800837 13.5929C0.919659 12.1243 1.19937 11.5467 2.25708 10.9364C1.19955 10.326 0.919839 9.74856 0.800837 8.27991C0.682015 6.81145 0.000359581 6.31782 0.000359581 6.31782C0.000359581 6.31782 0.7683 6.66134 2.09979 6.02984C3.4311 5.39834 4.07087 5.35196 5.12877 5.96261C5.12877 4.7415 5.48865 4.2103 6.70132 3.37333C7.91362 2.53619 8.00009 1.69922 8.00009 1.69922C8.00009 1.69922 8.08655 2.53619 9.29922 3.37315C10.5117 4.2103 10.8718 4.74132 10.8718 5.96243C11.9293 5.35178 12.5693 5.39816 13.9006 6.02966C15.2319 6.66117 16 6.31764 16 6.31764C16 6.31764 15.3183 6.81109 15.1997 8.27973C15.0809 9.74838 14.801 10.3258 13.7435 10.9362C14.801 11.5467 15.0809 12.1241 15.1997 13.5928C15.3185 15.0614 16 15.5547 16 15.5547C16 15.5547 15.2319 15.2113 13.9006 15.8428C12.5693 16.4743 11.9295 16.5207 10.8718 15.9101C10.8718 17.1312 10.5117 17.6624 9.29922 18.4995C8.08673 19.3367 8.00009 20.1735 8.00009 20.1735C8.00009 20.1735 7.91362 19.3367 6.70078 18.4995C5.48847 17.6624 5.12823 17.1314 5.12823 15.9101C4.07069 16.5205 3.43092 16.4743 2.09943 15.8428C0.7683 15.2115 1.69036e-07 15.5547 1.69036e-07 15.5547C1.69036e-07 15.5547 0.682015 15.0616 0.800837 13.5929ZM2.07732 14.3558C2.4674 15.0317 3.10789 15.1736 3.57653 15.1736C3.98027 15.1736 4.35166 15.0634 4.54095 14.9541C4.99646 14.6911 5.44694 14.3105 5.66176 14.0071C5.97544 13.5642 6.25587 13.4187 6.4892 13.5532C6.72738 13.6909 6.73439 14.0082 6.50969 14.497C6.35474 14.8344 6.25047 15.4146 6.25047 15.9408C6.25047 16.4806 6.75398 17.7751 8.00009 17.7753C8.69379 17.7753 9.11659 17.3839 9.34902 17.0555C9.62441 16.6667 9.74971 16.2054 9.74971 15.9408C9.74971 15.4146 9.64544 14.8344 9.49031 14.497C9.26561 14.0082 9.27262 13.6911 9.5108 13.5532C9.56617 13.5212 9.62567 13.505 9.68733 13.505C9.88596 13.505 10.0988 13.6693 10.3381 14.0071C10.5529 14.3105 11.0034 14.6911 11.4589 14.9541C11.6482 15.0632 12.0197 15.1736 12.4233 15.1736C12.8919 15.1736 13.5324 15.0317 13.9225 14.3558C14.2694 13.7551 14.142 13.1933 13.9739 12.8279C13.7749 12.395 13.4379 12.0554 13.2088 11.9233C12.7532 11.6601 12.1984 11.4602 11.8285 11.4259C11.2931 11.3761 11.0217 11.2111 11.0217 10.9361C11.0217 10.661 11.2931 10.4964 11.8285 10.4464C12.1984 10.4121 12.7532 10.2122 13.2088 9.949C13.4377 9.81687 13.7747 9.4773 13.9739 9.04444C14.142 8.67898 14.2696 8.11705 13.9225 7.51647C13.5324 6.84057 12.8919 6.69874 12.4233 6.69874C12.0197 6.69874 11.6482 6.80893 11.4589 6.91822C11.0034 7.18103 10.5529 7.56159 10.3381 7.86503C10.0244 8.30796 9.74359 8.45374 9.51062 8.31892C9.27244 8.18141 9.26543 7.86395 9.49013 7.37536C9.64526 7.03794 9.74953 6.4575 9.74953 5.93134C9.74953 5.39151 9.24601 4.09687 7.99937 4.09687C6.75309 4.09687 6.24976 5.39151 6.24976 5.93134C6.24976 6.4575 6.35402 7.03794 6.50915 7.37536C6.73385 7.86395 6.72684 8.18123 6.48866 8.31892C6.25533 8.45374 5.97526 8.30796 5.66122 7.86503C5.4464 7.56159 4.99592 7.18121 4.54041 6.91822C4.35112 6.80893 3.97955 6.69874 3.57617 6.69874C3.10753 6.69874 2.46704 6.84057 2.07678 7.51647C1.72984 8.11723 1.85729 8.67898 2.02537 9.04444C2.22436 9.4773 2.56142 9.81669 2.79043 9.949C3.24613 10.2122 3.80087 10.4121 4.171 10.4464C4.70705 10.4965 4.97813 10.6612 4.97813 10.9362C4.97813 11.2113 4.70705 11.3759 4.17172 11.4259C3.80159 11.4602 3.24685 11.6601 2.79115 11.9235C2.5625 12.0554 2.22544 12.3952 2.02609 12.8279C1.85801 13.1933 1.73038 13.7551 2.07732 14.3558Z" fill="#A481C4"/>
<rect width="3.45098" height="6.90196" transform="matrix(-1 0 0 1 9.72559 0.617676)" fill="#BCF0C6"/>
<path d="M8.00056 0C10.2961 0 12.1572 1.86115 12.1572 4.15666C12.1572 5.06056 11.8609 5.88999 11.3683 6.56926C11.3595 6.58554 11.3581 6.60372 11.3481 6.61931L8.57695 10.776C8.44844 10.9687 8.23195 11.0844 8.00056 11.0844C7.76918 11.0844 7.55268 10.9687 7.42417 10.776L4.65307 6.61931C4.64285 6.60372 4.64163 6.58554 4.6328 6.56926C4.14024 5.88999 3.8439 5.06056 3.8439 4.15666C3.8439 1.86115 5.70505 0 8.00056 0ZM8.00056 5.54222C8.76574 5.54222 9.38612 4.92183 9.38612 4.15666C9.38612 3.39149 8.76574 2.77111 8.00056 2.77111C7.23539 2.77111 6.61501 3.39149 6.61501 4.15666C6.61501 4.92183 7.23539 5.54222 8.00056 5.54222Z" fill="#013D79"/>
</svg>
