<svg width="48" height="61" viewBox="0 0 48 61" fill="none" xmlns="http://www.w3.org/2000/svg">
<path d="M23.752 13.6025C22.5102 13.6634 21.1962 14.1858 20.1953 15.3037C19.1308 16.4928 18.669 18.0702 18.6689 19.7695C18.6689 21.6289 18.9814 22.9348 19.2246 23.9619C19.3116 24.3302 19.3784 24.6223 19.4307 24.8975C19.3812 24.8548 19.3302 24.8121 19.2793 24.7666L18.7207 24.249C18.0513 23.6187 17.2209 22.8314 15.9443 22.0215L15.3691 21.6729C14.3514 21.0854 13.1583 20.6465 11.8652 20.6465L11.5293 20.6572C9.85031 20.7615 8.259 21.6458 7.35938 23.2031H7.3584C6.64184 24.4437 6.49481 25.9197 6.90527 27.2598L6.90625 27.2607C7.43261 28.9761 8.71381 30.1414 10.0381 30.9062L10.0391 30.9072C11.6494 31.8364 12.9374 32.2186 13.9473 32.5215H13.9482C14.3109 32.63 14.5964 32.7178 14.8594 32.8096C14.5967 32.9011 14.311 32.9893 13.9443 33.0996H13.9453C12.939 33.4016 11.6508 33.7828 10.04 34.7129H10.0391C8.71381 35.4775 7.43265 36.6438 6.90625 38.3594H6.90527L6.83496 38.6123C6.51506 39.8837 6.68694 41.2528 7.35742 42.415L7.3584 42.417C8.31733 44.0765 10.0645 44.9735 11.8652 44.9736C12.9968 44.9736 14.0517 44.6369 14.9795 44.1592L15.3691 43.9463C16.5774 43.2491 17.4276 42.5546 18.1006 41.9463L18.7217 41.3691C18.9992 41.1076 19.2196 40.9035 19.4316 40.7207C19.3796 40.9953 19.3122 41.2871 19.2246 41.6582L19.0352 42.4844C18.8446 43.3719 18.669 44.4549 18.6689 45.8496L18.6738 46.167C18.7279 47.7453 19.1967 49.2014 20.1953 50.3164C21.2634 51.5088 22.6875 52.0234 23.999 52.0234C25.3108 52.0234 26.7348 51.5086 27.8027 50.3164C28.8676 49.1273 29.3301 47.5502 29.3301 45.8506C29.3301 43.9908 29.0166 42.6838 28.7744 41.6592V41.6582L28.6055 40.918C28.5915 40.8512 28.5805 40.7858 28.5684 40.7217C28.78 40.9042 28.9989 41.1085 29.2754 41.3691L29.2764 41.3701C30.0415 42.0906 31.0172 43.0163 32.6289 43.9463V43.9473C33.6445 44.5328 34.8374 44.9736 36.1318 44.9736C37.9324 44.9736 39.6792 44.0776 40.6387 42.416L40.6396 42.417C41.3563 41.1763 41.5027 39.7012 41.0928 38.3613L41.0918 38.3594L40.9844 38.0439C40.405 36.4994 39.2011 35.4298 37.958 34.7129L37.3691 34.3896C36.03 33.6898 34.9335 33.3636 34.0498 33.0986H34.0488L33.3252 32.875C33.2612 32.8539 33.1997 32.8309 33.1387 32.8096C33.4006 32.7183 33.6856 32.6311 34.0508 32.5215V32.5205C35.0595 32.218 36.3482 31.8374 37.959 30.9072V30.9062C39.2839 30.1413 40.5655 28.9761 41.0918 27.2607V27.2598C41.5027 25.919 41.3549 24.4438 40.6396 23.2041L40.6387 23.2031L40.4502 22.9004C39.4614 21.4344 37.8202 20.6465 36.1318 20.6465L35.8906 20.6514C34.6909 20.7017 33.5838 21.1224 32.6299 21.6729H32.6289C31.0175 22.6027 30.0419 23.5276 29.2754 24.25V24.251L28.7178 24.7676C28.6674 24.8127 28.6173 24.8552 28.5684 24.8975C28.6204 24.6236 28.6859 24.332 28.7734 23.9629L28.7744 23.9609C28.9862 23.0643 29.2522 21.9516 29.3154 20.4414L29.3301 19.7695C29.3303 18.0698 28.8676 16.4927 27.8027 15.3037C26.735 14.1115 25.3112 13.5967 23.999 13.5967L23.752 13.6025ZM23.998 32.0352C24.4228 32.0352 24.7734 32.3848 24.7734 32.8096C24.7734 33.2341 24.4226 33.585 23.998 33.585C23.5737 33.5847 23.2236 33.2339 23.2236 32.8096C23.2237 32.385 23.5735 32.0354 23.998 32.0352Z" fill="#A481C4" stroke="#E6FFEB" stroke-width="6"/>
<path d="M2.40251 40.7787C2.75897 36.3728 3.5981 34.6401 6.77124 32.8092C3.59864 30.9778 2.75951 29.2456 2.40251 24.8397C2.04604 20.4343 0.00107668 18.9534 0.00107668 18.9534C0.00107668 18.9534 2.3049 19.984 6.29937 18.0895C10.2933 16.195 12.2126 16.0559 15.3863 17.8878C15.3863 14.2245 16.4659 12.6309 20.1039 10.12C23.7409 7.60856 24.0003 5.09766 24.0003 5.09766C24.0003 5.09766 24.2597 7.60856 27.8977 10.1195C31.5351 12.6309 32.6153 14.2239 32.6153 17.8873C35.7879 16.0553 37.7078 16.1945 41.7017 18.089C45.6956 19.9835 48 18.9529 48 18.9529C48 18.9529 45.955 20.4332 45.5991 24.8392C45.2426 29.2451 44.403 30.9773 41.2304 32.8087C44.403 34.6401 45.2426 36.3723 45.5991 40.7782C45.9556 45.1841 48 46.6639 48 46.6639C48 46.6639 45.6956 45.6339 41.7017 47.5284C37.7078 49.4229 35.7885 49.562 32.6153 47.7301C32.6153 51.3934 31.5351 52.987 27.8977 55.4985C24.2602 58.0099 24.0003 60.5203 24.0003 60.5203C24.0003 60.5203 23.7409 58.0099 20.1023 55.4985C16.4654 52.987 15.3847 51.394 15.3847 47.7301C12.2121 49.5615 10.2928 49.4229 6.29829 47.5284C2.3049 45.6344 -1.55779e-06 46.6639 -1.55779e-06 46.6639C-1.55779e-06 46.6639 2.04604 45.1847 2.40251 40.7787ZM6.23196 43.0675C7.40221 45.0952 9.32367 45.5207 10.7296 45.5207C11.9408 45.5207 13.055 45.1901 13.6228 44.8622C14.9894 44.0732 16.3408 42.9316 16.9853 42.0213C17.9263 40.6925 18.7676 40.2562 19.4676 40.6596C20.1821 41.0727 20.2032 42.0245 19.5291 43.4908C19.0642 44.503 18.7514 46.2438 18.7514 47.8223C18.7514 49.4418 20.262 53.3252 24.0003 53.3257C26.0814 53.3257 27.3498 52.1517 28.0471 51.1664C28.8732 49.9999 29.2491 48.6161 29.2491 47.8223C29.2491 46.2438 28.9363 44.503 28.4709 43.4908C27.7968 42.0245 27.8179 41.0732 28.5324 40.6596C28.6985 40.5636 28.877 40.515 29.062 40.515C29.6579 40.515 30.2964 41.0079 31.0142 42.0213C31.6586 42.9316 33.0101 44.0732 34.3766 44.8622C34.9445 45.1895 36.0592 45.5207 37.2699 45.5207C38.6758 45.5207 40.5973 45.0952 41.7675 43.0675C42.8083 41.2652 42.426 39.5799 41.9217 38.4836C41.3247 37.185 40.3136 36.1663 39.6265 35.7699C38.2595 34.9804 36.5952 34.3807 35.4854 34.2777C33.8794 34.1283 33.0651 33.6333 33.0651 32.8081C33.0651 31.983 33.8794 31.4891 35.4854 31.3391C36.5952 31.2361 38.2595 30.6365 39.6265 29.847C40.3131 29.4506 41.3242 28.4319 41.9217 27.1333C42.426 26.0369 42.8089 24.3511 41.7675 22.5494C40.5973 20.5217 38.6758 20.0962 37.2699 20.0962C36.0592 20.0962 34.9445 20.4268 34.3766 20.7546C33.0101 21.5431 31.6586 22.6847 31.0142 23.595C30.0731 24.9238 29.2308 25.3612 28.5319 24.9567C27.8173 24.5442 27.7963 23.5918 28.4704 22.126C28.9358 21.1138 29.2486 19.3725 29.2486 17.794C29.2486 16.1745 27.738 12.2906 23.9981 12.2906C20.2593 12.2906 18.7493 16.1745 18.7493 17.794C18.7493 19.3725 19.062 21.1138 19.5275 22.126C20.2016 23.5918 20.1805 24.5436 19.466 24.9567C18.766 25.3612 17.9258 24.9238 16.9837 23.595C16.3392 22.6847 14.9878 21.5436 13.6212 20.7546C13.0534 20.4268 11.9387 20.0962 10.7285 20.0962C9.32259 20.0962 7.40113 20.5217 6.23034 22.5494C5.18953 24.3517 5.57187 26.0369 6.0761 27.1333C6.67309 28.4319 7.68425 29.45 8.3713 29.847C9.73838 30.6365 11.4026 31.2361 12.513 31.3391C14.1211 31.4896 14.9344 31.9836 14.9344 32.8087C14.9344 33.6338 14.1211 34.1278 12.5152 34.2777C11.4048 34.3807 9.74054 34.9804 8.37345 35.7704C7.68749 36.1663 6.67633 37.1855 6.07826 38.4836C5.57403 39.5799 5.19114 41.2652 6.23196 43.0675Z" fill="#A481C4"/>
<rect width="10.3529" height="20.7058" transform="matrix(-1 0 0 1 29.1768 1.85205)" fill="#BCF0C6"/>
<path d="M24.0036 0C30.8902 0 36.4736 5.58343 36.4736 12.47C36.4736 15.1817 35.5846 17.6699 34.1069 19.7077C34.0804 19.7566 34.0763 19.8111 34.0461 19.8579L25.7328 32.3279C25.3473 32.9062 24.6978 33.2532 24.0036 33.2532C23.3095 33.2532 22.66 32.9062 22.2745 32.3279L13.9612 19.8579C13.9305 19.8111 13.9269 19.7566 13.9004 19.7077C12.4227 17.6699 11.5337 15.1817 11.5337 12.47C11.5337 5.58343 17.1171 0 24.0036 0ZM24.0036 16.6266C26.2992 16.6266 28.1603 14.7655 28.1603 12.47C28.1603 10.1745 26.2992 8.31331 24.0036 8.31331C21.7081 8.31331 19.847 10.1745 19.847 12.47C19.847 14.7655 21.7081 16.6266 24.0036 16.6266Z" fill="#013D79"/>
</svg>
