<svg width="33" height="41" viewBox="0 0 33 41" fill="none" xmlns="http://www.w3.org/2000/svg">
<path d="M16.2148 9.06836C15.387 9.10896 14.511 9.45778 13.8438 10.2031C13.1342 10.9959 12.8262 12.0469 12.8262 13.1797C12.8262 14.4192 13.0342 15.2899 13.1963 15.9746C13.2543 16.2204 13.3001 16.415 13.335 16.5986C13.1934 16.4765 13.0458 16.3406 12.8604 16.166L12.4473 15.7822C11.9991 15.3771 11.4322 14.914 10.627 14.4492L10.3672 14.3076C9.74857 13.989 9.04555 13.7647 8.29102 13.7646L8.06641 13.7715C6.94688 13.841 5.88485 14.4302 5.28516 15.4688H5.28613C4.80847 16.2957 4.70984 17.2795 4.9834 18.1729L4.98438 18.1738C5.33529 19.3175 6.18939 20.0946 7.07227 20.6045H7.07324C8.14655 21.2238 9.00457 21.4788 9.67773 21.6807L9.67871 21.6816C9.92077 21.7541 10.1116 21.8118 10.2871 21.873C10.1117 21.9342 9.92064 21.9927 9.67578 22.0664H9.67676C9.00603 22.2677 8.14758 22.5219 7.07422 23.1416H7.07324C6.245 23.6195 5.44195 24.3328 5.05566 25.3623L4.98438 25.5723V25.5732L4.93652 25.7412C4.72316 26.5889 4.83802 27.5024 5.28516 28.2773L5.28613 28.2783C5.92551 29.3846 7.09051 29.9824 8.29102 29.9824C9.15312 29.9823 9.94843 29.6896 10.627 29.2979V29.2969C11.7005 28.6772 12.3505 28.0615 12.8613 27.5801V27.5791C13.0463 27.4047 13.1936 27.2693 13.335 27.1475C13.3002 27.3305 13.2547 27.525 13.1963 27.7725L13.0703 28.3232C12.9433 28.9149 12.8262 29.6367 12.8262 30.5664L12.8408 30.9873C12.9092 31.9585 13.2225 32.8502 13.8438 33.5439C14.5558 34.3389 15.5055 34.6826 16.3799 34.6826C17.2543 34.6825 18.2032 34.3387 18.915 33.5439C19.6249 32.7513 19.9335 31.7003 19.9336 30.5674C19.9336 29.3278 19.7249 28.4565 19.5635 27.7734L19.5625 27.7725L19.4502 27.2783C19.4409 27.2338 19.4339 27.1902 19.4258 27.1475C19.5669 27.2692 19.713 27.4053 19.8975 27.5791L19.8984 27.5801C20.3447 28.0003 20.898 28.5255 21.749 29.0654L22.1328 29.2979C22.8098 29.6882 23.605 29.9824 24.4678 29.9824C25.6682 29.9824 26.834 29.3851 27.4736 28.2773L27.4727 28.2764C27.95 27.4494 28.0486 26.4672 27.7754 25.5742L27.7744 25.5723L27.7031 25.3623C27.3683 24.47 26.7208 23.8155 26.0146 23.3457L25.6846 23.1416C24.6114 22.5225 23.7531 22.2682 23.0801 22.0664L23.0791 22.0654L22.5967 21.917C22.5541 21.903 22.5133 21.8872 22.4727 21.873C22.6473 21.8122 22.8375 21.7538 23.0811 21.6807V21.6797C23.7534 21.478 24.6129 21.2244 25.6865 20.6045V20.6035C26.5145 20.1254 27.317 19.4132 27.7031 18.3838L27.7744 18.1738C28.0485 17.28 27.9504 16.2962 27.4736 15.4697L27.4727 15.4688L27.3467 15.2666C26.6875 14.2895 25.5932 13.7646 24.4678 13.7646L24.1484 13.7773C23.4091 13.8387 22.7258 14.1063 22.1318 14.4492H22.1328C21.0585 15.0691 20.4085 15.6854 19.8975 16.167L19.5254 16.5117C19.4915 16.542 19.4577 16.5703 19.4248 16.5986C19.4595 16.416 19.5041 16.2218 19.5625 15.9756L19.5635 15.9736C19.7047 15.376 19.8816 14.6345 19.9238 13.6279L19.9336 13.1797C19.9337 12.0465 19.625 10.9948 18.915 10.2021C18.2033 9.40764 17.2545 9.06454 16.3799 9.06445L16.2148 9.06836ZM16.3789 21.3564C16.6621 21.3564 16.8955 21.5899 16.8955 21.873C16.8955 22.156 16.6619 22.3896 16.3789 22.3896C16.096 22.3895 15.8623 22.1559 15.8623 21.873C15.8623 21.59 16.0959 21.3566 16.3789 21.3564Z" fill="#A481C4" stroke="#E6FFEB" stroke-width="4"/>
<path d="M1.98156 27.1858C2.2192 24.2485 2.77862 23.0934 4.89405 21.8728C2.77898 20.6519 2.21956 19.4971 1.98156 16.5598C1.74391 13.6229 0.380602 12.6356 0.380602 12.6356C0.380602 12.6356 1.91648 13.3227 4.57946 12.0597C7.24209 10.7967 8.52162 10.7039 10.6374 11.9252C10.6374 9.48298 11.3572 8.4206 13.7825 6.74666C16.2071 5.07237 16.3801 3.39844 16.3801 3.39844C16.3801 3.39844 16.553 5.07237 18.9783 6.7463C21.4033 8.4206 22.1234 9.48262 22.1234 11.9249C24.2385 10.7036 25.5184 10.7963 28.181 12.0593C30.8436 13.3223 32.3799 12.6353 32.3799 12.6353C32.3799 12.6353 31.0166 13.6222 30.7793 16.5594C30.5416 19.4967 29.9819 20.6515 27.8668 21.8725C29.9819 23.0934 30.5416 24.2482 30.7793 27.1855C31.0169 30.1228 32.3799 31.1093 32.3799 31.1093C32.3799 31.1093 30.8436 30.4226 28.181 31.6856C25.5184 32.9486 24.2389 33.0414 22.1234 31.8201C22.1234 34.2623 21.4033 35.3247 18.9783 36.999C16.5534 38.6733 16.3801 40.3468 16.3801 40.3468C16.3801 40.3468 16.2071 38.6733 13.7814 36.999C11.3568 35.3247 10.6363 34.2627 10.6363 31.8201C8.52127 33.041 7.24173 32.9486 4.57875 31.6856C1.91648 30.423 0.379883 31.1093 0.379883 31.1093C0.379883 31.1093 1.74391 30.1231 1.98156 27.1858ZM4.53452 28.7116C5.31469 30.0634 6.59566 30.3471 7.53294 30.3471C8.34043 30.3471 9.0832 30.1267 9.46178 29.9081C10.3728 29.3821 11.2738 28.621 11.7034 28.0142C12.3308 27.1283 12.8916 26.8375 13.3583 27.1064C13.8346 27.3818 13.8487 28.0163 13.3993 28.9939C13.0894 29.6687 12.8808 30.8292 12.8808 31.8815C12.8808 32.9612 13.8879 35.5501 16.3801 35.5505C17.7675 35.5505 18.6131 34.7678 19.0779 34.1109C19.6287 33.3333 19.8793 32.4108 19.8793 31.8815C19.8793 30.8292 19.6708 29.6687 19.3605 28.9939C18.9111 28.0163 18.9251 27.3821 19.4015 27.1064C19.5122 27.0424 19.6312 27.01 19.7545 27.01C20.1518 27.01 20.5775 27.3386 21.056 28.0142C21.4856 28.621 22.3866 29.3821 23.2976 29.9081C23.6762 30.1264 24.4193 30.3471 25.2265 30.3471C26.1637 30.3471 27.4447 30.0634 28.2249 28.7116C28.9188 27.5101 28.6639 26.3866 28.3277 25.6557C27.9297 24.79 27.2556 24.1108 26.7976 23.8466C25.8862 23.3203 24.7767 22.9205 24.0368 22.8518C22.9662 22.7522 22.4233 22.4222 22.4233 21.8721C22.4233 21.322 22.9662 20.9927 24.0368 20.8928C24.7767 20.8241 25.8862 20.4243 26.7976 19.898C27.2553 19.6337 27.9294 18.9546 28.3277 18.0889C28.6639 17.3579 28.9191 16.2341 28.2249 15.0329C27.4447 13.6811 26.1637 13.3975 25.2265 13.3975C24.4193 13.3975 23.6762 13.6178 23.2976 13.8364C22.3866 14.3621 21.4856 15.1232 21.056 15.73C20.4286 16.6159 19.8671 16.9075 19.4011 16.6378C18.9248 16.3628 18.9107 15.7279 19.3601 14.7507C19.6704 14.0759 19.8789 12.915 19.8789 11.8627C19.8789 10.783 18.8719 8.19374 16.3786 8.19374C13.8861 8.19374 12.8794 10.783 12.8794 11.8627C12.8794 12.915 13.0879 14.0759 13.3982 14.7507C13.8476 15.7279 13.8336 16.3624 13.3572 16.6378C12.8905 16.9075 12.3304 16.6159 11.7023 15.73C11.2727 15.1232 10.3717 14.3624 9.4607 13.8364C9.08212 13.6178 8.33899 13.3975 7.53222 13.3975C6.59495 13.3975 5.31397 13.6811 4.53345 15.0329C3.83957 16.2344 4.09447 17.3579 4.43062 18.0889C4.82861 18.9546 5.50272 19.6334 5.96075 19.898C6.87214 20.4243 7.98162 20.8241 8.72188 20.8928C9.79398 20.9931 10.3361 21.3224 10.3361 21.8725C10.3361 22.4225 9.79398 22.7519 8.72332 22.8518C7.98306 22.9205 6.87358 23.3203 5.96219 23.847C5.50487 24.1108 4.83077 24.7903 4.43206 25.6557C4.0959 26.3866 3.84065 27.5101 4.53452 28.7116Z" fill="#A481C4"/>
<rect width="6.90196" height="13.8039" transform="matrix(-1 0 0 1 19.8311 1.23486)" fill="#BCF0C6"/>
<path d="M16.382 0C20.973 0 24.6953 3.72228 24.6953 8.31331C24.6953 10.1211 24.1026 11.78 23.1175 13.1385C23.0998 13.1711 23.0971 13.2074 23.077 13.2386L17.5348 21.5519C17.2777 21.9374 16.8448 22.1688 16.382 22.1688C15.9192 22.1688 15.4862 21.9374 15.2292 21.5519L9.68699 13.2386C9.66656 13.2074 9.66413 13.1711 9.64646 13.1385C8.66134 11.78 8.06867 10.1211 8.06867 8.31331C8.06867 3.72228 11.791 0 16.382 0ZM16.382 11.0844C17.9123 11.0844 19.1531 9.84365 19.1531 8.31331C19.1531 6.78297 17.9123 5.54221 16.382 5.54221C14.8516 5.54221 13.6109 6.78297 13.6109 8.31331C13.6109 9.84365 14.8516 11.0844 16.382 11.0844Z" fill="#013D79"/>
</svg>
