<svg width="26" height="32" viewBox="0 0 26 32" fill="none" xmlns="http://www.w3.org/2000/svg">
<path d="M12.4355 7.28809C11.8386 7.34683 11.2206 7.61505 10.7422 8.14941C10.1971 8.75838 9.95704 9.56984 9.95703 10.4531C9.95703 11.4257 10.1207 12.1084 10.249 12.6504C10.3187 12.9453 10.3661 13.1515 10.3965 13.376C10.2172 13.2373 10.0623 13.0942 9.83984 12.8848L9.51367 12.582C9.16054 12.2628 8.7162 11.899 8.08398 11.5342L7.88086 11.4238C7.39915 11.1758 6.85463 11.0029 6.27344 11.0029L6.10156 11.0088C5.24032 11.0622 4.42496 11.5147 3.96484 12.3115L3.8418 12.5547C3.58456 13.1338 3.54957 13.7872 3.7334 14.3877V14.3887C4.00305 15.2675 4.66124 15.8695 5.35059 16.2676H5.35156C5.98306 16.6319 6.51928 16.8351 6.97266 16.9814L7.39941 17.1133C7.69037 17.2004 7.89199 17.2619 8.10059 17.3477C7.89198 17.4333 7.69188 17.4954 7.39746 17.584H7.39844C6.86747 17.7433 6.19472 17.9425 5.35254 18.4287H5.35156C4.70498 18.8018 4.08613 19.3541 3.78906 20.1455L3.7334 20.3076L3.66797 20.5684C3.54653 21.1814 3.64474 21.8289 3.96484 22.3838L3.96582 22.3848C4.45625 23.2334 5.34983 23.6932 6.27344 23.6934C6.9377 23.6934 7.55437 23.4679 8.08398 23.1621V23.1611C8.71589 22.7964 9.16037 22.4337 9.51367 22.1143L9.83984 21.8115C10.0627 21.6014 10.2178 21.457 10.3975 21.3184C10.3674 21.5433 10.3194 21.7487 10.249 22.0469L10.1494 22.4814C10.0493 22.9475 9.95705 23.5135 9.95703 24.2432L9.96875 24.5703C10.0219 25.3259 10.265 26.0139 10.7422 26.5469C11.2891 27.1574 12.0182 27.4209 12.6895 27.4209C13.3608 27.4209 14.0889 27.1574 14.6357 26.5469C15.1812 25.9379 15.4219 25.1267 15.4219 24.2432C15.4218 23.2705 15.2587 22.5876 15.1309 22.0469H15.1299L15.041 21.6533C15.0168 21.5376 14.9973 21.4309 14.9824 21.3193C15.1619 21.458 15.316 21.6022 15.5381 21.8115H15.5391C15.8923 22.1442 16.3266 22.5559 16.9941 22.9795L17.2949 23.1621H17.2959C17.8243 23.4668 18.4398 23.6933 19.1045 23.6934C19.9704 23.6934 20.8104 23.2897 21.3164 22.5391L21.4131 22.3848C21.7797 21.75 21.8555 20.9948 21.6455 20.3086L21.6445 20.3076L21.5898 20.1455C21.2928 19.354 20.6743 18.8018 20.0273 18.4287L19.7188 18.2598C19.0188 17.894 18.4456 17.7238 17.9795 17.584L17.9785 17.583L17.5938 17.4648C17.4822 17.4282 17.3809 17.3901 17.2773 17.3477C17.3804 17.3053 17.4814 17.269 17.5928 17.2324L17.9795 17.1133C18.4454 16.9736 19.019 16.803 19.7197 16.4365L20.0273 16.2676C20.6739 15.8944 21.2928 15.3423 21.5898 14.5508L21.6445 14.3887C21.8551 13.702 21.7791 12.9468 21.4131 12.3125V12.3115L21.3164 12.1572C20.8106 11.4072 19.9707 11.0029 19.1045 11.0029L18.8574 11.0137C18.2875 11.0611 17.7582 11.2667 17.2949 11.5342L16.9941 11.7168C16.3269 12.1401 15.8929 12.5513 15.5391 12.8848H15.5381L15.2422 13.1602C15.1543 13.2388 15.0711 13.3076 14.9824 13.376C15.0125 13.1522 15.0596 12.9468 15.1299 12.6504L15.1309 12.6494C15.2586 12.1087 15.4219 11.4259 15.4219 10.4531L15.4102 10.126C15.3569 9.37035 15.1139 8.68231 14.6367 8.14941C14.0899 7.53893 13.361 7.2754 12.6895 7.27539L12.4355 7.28809ZM12.6895 16.8516C12.9614 16.8517 13.1854 17.0757 13.1855 17.3477C13.1855 17.6196 12.9614 17.8436 12.6895 17.8438C12.4174 17.8438 12.1934 17.6198 12.1934 17.3477C12.1936 17.0756 12.4173 16.8516 12.6895 16.8516Z" fill="#A481C4" stroke="#E6FFEB" stroke-width="3"/>
<path d="M1.27028 21.5617C1.45876 19.232 1.90244 18.3159 3.58024 17.3478C1.90273 16.3794 1.45904 15.4636 1.27028 13.1339C1.08179 10.8046 0.000522244 10.0216 0.000522244 10.0216C0.000522244 10.0216 1.21866 10.5665 3.33074 9.56475C5.44252 8.56303 6.45735 8.48947 8.13543 9.45811C8.13543 7.52111 8.70629 6.67851 10.6299 5.35087C12.5529 4.02295 12.6901 2.69531 12.6901 2.69531C12.6901 2.69531 12.8272 4.02295 14.7508 5.35059C16.6741 6.67851 17.2453 7.52083 17.2453 9.45782C18.9228 8.48918 19.9379 8.56275 22.0497 9.56447C24.1615 10.5662 25.3799 10.0213 25.3799 10.0213C25.3799 10.0213 24.2986 10.804 24.1104 13.1336C23.9219 15.4633 23.478 16.3792 21.8005 17.3475C23.478 18.3159 23.9219 19.2318 24.1104 21.5614C24.2989 23.891 25.3799 24.6735 25.3799 24.6735C25.3799 24.6735 24.1615 24.1288 22.0497 25.1306C19.9379 26.1323 18.9231 26.2058 17.2453 25.2372C17.2453 27.1742 16.6741 28.0168 14.7508 29.3447C12.8275 30.6726 12.6901 32 12.6901 32C12.6901 32 12.5529 30.6726 10.629 29.3447C8.70601 28.0168 8.13458 27.1745 8.13458 25.2372C6.45707 26.2056 5.44224 26.1323 3.33017 25.1306C1.21866 24.1291 -4.78719e-05 24.6735 -4.78719e-05 24.6735C-4.78719e-05 24.6735 1.08179 23.8913 1.27028 21.5617ZM3.29509 22.7718C3.91386 23.844 4.92983 24.069 5.6732 24.069C6.31364 24.069 6.90275 23.8942 7.20301 23.7208C7.92557 23.3036 8.64014 22.7 8.98089 22.2186C9.47847 21.5161 9.92329 21.2854 10.2934 21.4987C10.6712 21.7171 10.6824 22.2204 10.3259 22.9957C10.0801 23.5309 9.91474 24.4513 9.91474 25.286C9.91474 26.1423 10.7134 28.1956 12.6901 28.1959C13.7904 28.1959 14.4611 27.5751 14.8298 27.0541C15.2666 26.4374 15.4654 25.7057 15.4654 25.286C15.4654 24.4513 15.3 23.5309 15.0539 22.9957C14.6975 22.2204 14.7086 21.7174 15.0864 21.4987C15.1742 21.4479 15.2686 21.4222 15.3664 21.4222C15.6815 21.4222 16.0191 21.6829 16.3987 22.2186C16.7394 22.7 17.454 23.3036 18.1765 23.7208C18.4768 23.8939 19.0662 24.069 19.7063 24.069C20.4497 24.069 21.4657 23.844 22.0845 22.7718C22.6348 21.8189 22.4326 20.9278 22.166 20.3481C21.8504 19.6615 21.3157 19.1228 20.9524 18.9132C20.2296 18.4958 19.3496 18.1787 18.7628 18.1242C17.9136 18.0453 17.4831 17.7835 17.4831 17.3472C17.4831 16.911 17.9136 16.6498 18.7628 16.5705C19.3496 16.516 20.2296 16.1989 20.9524 15.7815C21.3154 15.5719 21.8501 15.0333 22.166 14.3466C22.4326 13.7669 22.6351 12.8756 22.0845 11.9229C21.4657 10.8508 20.4497 10.6258 19.7063 10.6258C19.0662 10.6258 18.4768 10.8006 18.1765 10.9739C17.454 11.3908 16.7394 11.9945 16.3987 12.4758C15.9011 13.1784 15.4557 13.4097 15.0861 13.1958C14.7083 12.9777 14.6972 12.4741 15.0536 11.6991C15.2997 11.1638 15.4651 10.2431 15.4651 9.40849C15.4651 8.5522 14.6664 6.49858 12.6889 6.49858C10.712 6.49858 9.9136 8.5522 9.9136 9.40849C9.9136 10.2431 10.079 11.1638 10.3251 11.6991C10.6815 12.4741 10.6704 12.9774 10.2926 13.1958C9.92244 13.4097 9.47818 13.1784 8.98003 12.4758C8.63928 11.9945 7.92471 11.3911 7.20215 10.9739C6.90189 10.8006 6.3125 10.6258 5.67263 10.6258C4.92926 10.6258 3.91329 10.8508 3.29424 11.9229C2.74391 12.8759 2.94607 13.7669 3.21268 14.3466C3.52834 15.0333 4.06299 15.5716 4.42626 15.7815C5.14911 16.1989 6.02907 16.516 6.61618 16.5705C7.46648 16.65 7.89648 16.9112 7.89648 17.3475C7.89648 17.7838 7.46648 18.045 6.61732 18.1242C6.03021 18.1787 5.15025 18.4958 4.42741 18.9135C4.0647 19.1228 3.53005 19.6618 3.21382 20.3481C2.94721 20.9278 2.74476 21.8189 3.29509 22.7718Z" fill="#A481C4"/>
<rect width="5.4741" height="10.9482" transform="matrix(-1 0 0 1 15.4268 0.979492)" fill="#BCF0C6"/>
<path d="M12.6917 0C16.3329 0 19.2852 2.95223 19.2852 6.59349C19.2852 8.0273 18.8151 9.34297 18.0338 10.4205C18.0198 10.4463 18.0176 10.4751 18.0016 10.4999L13.606 17.0933C13.4021 17.3991 13.0587 17.5826 12.6917 17.5826C12.3246 17.5826 11.9812 17.3991 11.7774 17.0933L7.38171 10.4999C7.36551 10.4751 7.36358 10.4463 7.34957 10.4205C6.56824 9.34297 6.09818 8.0273 6.09818 6.59349C6.09818 2.95223 9.05042 0 12.6917 0ZM12.6917 8.79132C13.9054 8.79132 14.8895 7.80724 14.8895 6.59349C14.8895 5.37974 13.9054 4.39566 12.6917 4.39566C11.4779 4.39566 10.4938 5.37974 10.4938 6.59349C10.4938 7.80724 11.4779 8.79132 12.6917 8.79132Z" fill="#013D79"/>
</svg>
