<svg width="39" height="48" viewBox="0 0 39 48" fill="none" xmlns="http://www.w3.org/2000/svg">
<path d="M18.833 10.668C17.8186 10.7177 16.745 11.1447 15.9277 12.0576C15.0587 13.0284 14.6865 14.3107 14.6865 15.6797C14.6865 17.168 14.9377 18.2143 15.1309 19.0303L15.1299 19.0312C15.1624 19.1691 15.1899 19.2933 15.2158 19.4082C15.1292 19.3282 15.0344 19.2422 14.9307 19.1445L14.4375 18.6865C13.9007 18.2013 13.2192 17.6437 12.251 17.085L11.9365 16.9141C11.1882 16.5287 10.3327 16.2549 9.41113 16.2549L9.13672 16.2627C7.76757 16.3479 6.46656 17.0695 5.73145 18.3428H5.73242C5.14691 19.3565 5.02721 20.5613 5.3623 21.6553V21.6562C5.7919 23.0563 6.83582 24.0018 7.90137 24.6172H7.90234C9.19239 25.3616 10.2249 25.6685 11.0273 25.9092H11.0283C11.1629 25.9495 11.2832 25.9879 11.3945 26.0225C11.2832 26.0571 11.1627 26.095 11.0273 26.1357L10.3828 26.334C9.69437 26.556 8.87127 26.8679 7.90332 27.4268H7.90234C6.90262 28.0036 5.9228 28.871 5.4502 30.1309L5.3623 30.3877V30.3887L5.30469 30.5947C5.04346 31.6328 5.18347 32.7514 5.73145 33.7012L5.73242 33.7021C6.51619 35.0585 7.94318 35.79 9.41113 35.79C10.4643 35.79 11.4316 35.432 12.251 34.959V34.958C13.2185 34.3996 13.9005 33.8439 14.4375 33.3584L14.9316 32.8984C15.0349 32.8011 15.1294 32.7155 15.2158 32.6357C15.1899 32.7506 15.1626 32.8751 15.1299 33.0137H15.1309C14.9376 33.8295 14.6866 34.8756 14.6865 36.3643L14.6904 36.6201C14.7341 37.8929 15.1126 39.0771 15.9277 39.9873C16.7996 40.9607 17.963 41.3807 19.0342 41.3809C20.1057 41.3809 21.2687 40.9607 22.1406 39.9873C23.0101 39.0166 23.3828 37.7345 23.3828 36.3652C23.3828 34.8756 23.1319 33.8278 22.9395 33.0137V33.0117L22.8535 32.6348C22.94 32.7146 23.0334 32.801 23.1367 32.8984L23.1377 32.8994C23.7455 33.4718 24.5274 34.214 25.8184 34.959L25.8193 34.96C26.6367 35.4312 27.6033 35.79 28.6572 35.79C30.1249 35.79 31.5518 35.0591 32.3359 33.7012L32.3369 33.7021C32.9225 32.6883 33.0418 31.4835 32.707 30.3896L32.7061 30.3877L32.6191 30.1309C32.1466 28.8709 31.1663 28.0036 30.166 27.4268L29.6943 27.168C28.6215 26.6074 27.7432 26.3463 27.041 26.1357H27.04L26.6738 26.0215C26.7852 25.9869 26.9057 25.9489 27.041 25.9082V25.9092C27.8426 25.6688 28.8762 25.3625 30.167 24.6172V24.6162C31.1662 24.0393 32.1466 23.1734 32.6191 21.9141L32.7061 21.6562H32.707C33.0426 20.5616 32.9214 19.3568 32.3369 18.3438V18.3418L32.1826 18.0947C31.3746 16.8968 30.0335 16.2549 28.6572 16.2549L28.4609 16.2588C27.4841 16.2998 26.5864 16.6416 25.8184 17.085L25.3574 17.3643C24.3349 18.013 23.6696 18.6433 23.1367 19.1455L22.8535 19.4092L22.9385 19.0332L22.9395 19.0312C23.1077 18.3188 23.3213 17.4277 23.3721 16.2178L23.3828 15.6797C23.383 14.3102 23.0111 13.0274 22.1416 12.0566C21.2698 11.0833 20.106 10.6631 19.0342 10.6631L18.833 10.668ZM19.0342 25.5283C19.3045 25.5283 19.5283 25.7522 19.5283 26.0225C19.5281 26.2923 19.3041 26.5156 19.0342 26.5156C18.7643 26.5156 18.5403 26.2923 18.54 26.0225C18.54 25.7522 18.7639 25.5283 19.0342 25.5283Z" fill="#A481C4" stroke="#E6FFEB" stroke-width="5"/>
<path d="M1.9059 32.3425C2.18862 28.848 2.85415 27.4737 5.37084 26.0216C2.85458 24.5691 2.18905 23.1953 1.9059 19.7008C1.62318 16.2068 0.00126958 15.0323 0.00126958 15.0323C0.00126958 15.0323 1.82848 15.8497 4.99659 14.3471C8.16427 12.8445 9.68652 12.7342 12.2036 14.1871C12.2036 11.2817 13.0599 10.0178 15.9453 8.0263C18.8298 6.03442 19.0356 4.04297 19.0356 4.04297C19.0356 4.04297 19.2413 6.03442 22.1267 8.02587C25.0117 10.0178 25.8684 11.2812 25.8684 14.1867C28.3846 12.7338 29.9073 12.8441 33.075 14.3467C36.2427 15.8492 38.0703 15.0319 38.0703 15.0319C38.0703 15.0319 36.4484 16.206 36.1661 19.7004C35.8834 23.1949 35.2174 24.5687 32.7012 26.0212C35.2174 27.4737 35.8834 28.8476 36.1661 32.342C36.4488 35.8365 38.0703 37.0101 38.0703 37.0101C38.0703 37.0101 36.2427 36.1932 33.075 37.6958C29.9073 39.1983 28.3851 39.3087 25.8684 37.8557C25.8684 40.7612 25.0117 42.0251 22.1267 44.017C19.2417 46.0089 19.0356 47.9999 19.0356 47.9999C19.0356 47.9999 18.8298 46.0089 15.944 44.017C13.0595 42.0251 12.2024 40.7616 12.2024 37.8557C9.68609 39.3083 8.16384 39.1983 4.99574 37.6958C1.82848 36.1936 0.000414409 37.0101 0.000414409 37.0101C0.000414409 37.0101 1.62318 35.8369 1.9059 32.3425ZM4.94313 34.1577C5.87127 35.7659 7.39523 36.1034 8.51029 36.1034C9.47095 36.1034 10.3546 35.8412 10.805 35.5811C11.8888 34.9554 12.9607 34.0499 13.4718 33.3279C14.2182 32.274 14.8854 31.928 15.4406 32.2479C16.0073 32.5756 16.024 33.3305 15.4894 34.4934C15.1207 35.2963 14.8726 36.6769 14.8726 37.9289C14.8726 39.2133 16.0706 42.2933 19.0356 42.2937C20.6861 42.2937 21.6921 41.3626 22.2452 40.5811C22.9004 39.656 23.1986 38.5585 23.1986 37.9289C23.1986 36.6769 22.9505 35.2963 22.5814 34.4934C22.0467 33.3305 22.0634 32.576 22.6301 32.2479C22.7619 32.1718 22.9034 32.1333 23.0501 32.1333C23.5228 32.1333 24.0292 32.5242 24.5985 33.3279C25.1096 34.0499 26.1815 34.9554 27.2653 35.5811C27.7157 35.8408 28.5998 36.1034 29.56 36.1034C30.6751 36.1034 32.199 35.7659 33.1272 34.1577C33.9527 32.7283 33.6494 31.3916 33.2495 30.5221C32.776 29.4921 31.974 28.6842 31.4291 28.3698C30.3449 27.7436 29.0249 27.268 28.1447 27.1863C26.8709 27.0678 26.2251 26.6752 26.2251 26.0208C26.2251 25.3664 26.8709 24.9746 28.1447 24.8557C29.0249 24.774 30.3449 24.2984 31.4291 23.6722C31.9736 23.3578 32.7756 22.5499 33.2495 21.5199C33.6494 20.6504 33.9531 19.3133 33.1272 17.8843C32.199 16.2761 30.6751 15.9386 29.56 15.9386C28.5998 15.9386 27.7157 16.2008 27.2653 16.4609C26.1815 17.0862 25.1096 17.9917 24.5985 18.7137C23.8521 19.7676 23.184 20.1144 22.6297 19.7937C22.063 19.4665 22.0463 18.7111 22.5809 17.5486C22.9501 16.7457 23.1981 15.3646 23.1981 14.1127C23.1981 12.8283 22.0001 9.74786 19.0339 9.74786C16.0685 9.74786 14.8709 12.8283 14.8709 14.1127C14.8709 15.3646 15.119 16.7457 15.4881 17.5486C16.0227 18.7111 16.0061 19.466 15.4393 19.7937C14.8841 20.1144 14.2178 19.7676 13.4705 18.7137C12.9594 17.9917 11.8876 17.0866 10.8037 16.4609C10.3533 16.2008 9.46924 15.9386 8.50944 15.9386C7.39438 15.9386 5.87042 16.2761 4.94184 17.8843C4.11635 19.3138 4.4196 20.6504 4.81951 21.5199C5.293 22.5499 6.09497 23.3574 6.63988 23.6722C7.72415 24.2984 9.04409 24.774 9.92476 24.8557C11.2002 24.975 11.8452 25.3668 11.8452 26.0212C11.8452 26.6756 11.2002 27.0674 9.92647 27.1863C9.0458 27.268 7.72586 27.7436 6.64159 28.3702C6.09754 28.6842 5.29556 29.4926 4.82122 30.5221C4.42131 31.3916 4.11763 32.7283 4.94313 34.1577Z" fill="#A481C4"/>
<rect width="8.21115" height="16.4223" transform="matrix(-1 0 0 1 23.1416 1.46875)" fill="#BCF0C6"/>
<path d="M19.0385 0C24.5004 0 28.9287 4.42834 28.9287 9.89021C28.9287 12.0409 28.2236 14.0144 27.0516 15.6307C27.0306 15.6694 27.0273 15.7127 27.0034 15.7498L20.4099 25.64C20.1042 26.0986 19.589 26.3739 19.0385 26.3739C18.4879 26.3739 17.9728 26.0986 17.667 25.64L11.0735 15.7498C11.0492 15.7127 11.0464 15.6694 11.0253 15.6307C9.85334 14.0144 9.14825 12.0409 9.14825 9.89021C9.14825 4.42834 13.5766 0 19.0385 0ZM19.0385 13.187C20.8591 13.187 22.3352 11.7108 22.3352 9.89021C22.3352 8.06959 20.8591 6.59348 19.0385 6.59348C17.2179 6.59348 15.7417 8.06959 15.7417 9.89021C15.7417 11.7108 17.2179 13.187 19.0385 13.187Z" fill="#013D79"/>
</svg>
